/* XPM */
static char *image[] = {
"48 48 274 2",
"   c None",
"00 c #202324",
"10 c #202224",
"20 c #202225",
"30 c #212325",
"40 c #212426",
"50 c #222526",
"60 c #232627",
"70 c #222527",
"80 c #232728",
"90 c #242729",
":0 c #252729",
";0 c #252829",
"A0 c #25292a",
"B0 c #25292b",
"C0 c #26292b",
"D0 c #262a2c",
"E0 c #272a2c",
"F0 c #272b2c",
"G0 c #272c2d",
"H0 c #282c2e",
"I0 c #282d2e",
"J0 c #292d2e",
"K0 c #292e2e",
"L0 c #292e2f",
"M0 c #292e30",
"N0 c #2a2f30",
"O0 c #2a3031",
"P0 c #2c3233",
"Q0 c #2a2c2f",
"R0 c #2d3033",
"S0 c #2e3133",
"T0 c #373c3f",
"U0 c #2e3134",
"V0 c #2e3234",
"W0 c #2f3335",
"X0 c #2f3538",
"Y0 c #2f3235",
"Z0 c #2f3336",
"a0 c #303336",
"b0 c #373d3e",
"c0 c #303436",
"d0 c #303438",
"e0 c #303537",
"f0 c #313437",
"g0 c #303538",
"h0 c #303437",
"i0 c #323538",
"j0 c #313538",
"k0 c #323838",
"l0 c #7d8484",
"m0 c #4d5456",
"n0 c #858d8d",
"o0 c #9fa7a7",
"p0 c #333739",
"q0 c #303637",
"r0 c #303638",
"s0 c #313537",
"t0 c #313639",
"u0 c #868e8e",
"v0 c #a0a8a8",
"w0 c #909898",
"x0 c #33383b",
"y0 c #32383a",
"z0 c #878f8f",
"01 c #a1a9a9",
"11 c #919999",
"21 c #464d4e",
"31 c #34383b",
"41 c #34393c",
"51 c #313637",
"61 c #323738",
"71 c #323639",
"81 c #333939",
"91 c #888f90",
":1 c #a2a9a9",
";1 c #929a9a",
"A1 c #34393b",
"B1 c #313839",
"C1 c #313638",
"D1 c #323638",
"E1 c #313738",
"F1 c #899091",
"G1 c #a3aaaa",
"H1 c #929a9b",
"I1 c #464d4f",
"J1 c #353a3c",
"K1 c #353b3d",
"L1 c #373e3f",
"M1 c #333839",
"N1 c #313739",
"O1 c #323839",
"P1 c #323739",
"Q1 c #8a9191",
"R1 c #a4acac",
"S1 c #939b9c",
"T1 c #353a3d",
"U1 c #363b3e",
"V1 c #384042",
"W1 c #33393b",
"X1 c #32373a",
"Y1 c #33373a",
"Z1 c #393e41",
"a1 c #8b9292",
"b1 c #a5adad",
"c1 c #363b3d",
"d1 c #353a3b",
"e1 c #33383a",
"f1 c #8c9393",
"g1 c #a6adad",
"h1 c #959d9d",
"i1 c #363c3e",
"j1 c #3c4143",
"k1 c #8c9394",
"l1 c #a7aeae",
"m1 c #979e9e",
"n1 c #373c3e",
"o1 c #454c4e",
"p1 c #959c9c",
"q1 c #abb2b2",
"r1 c #99a0a1",
"s1 c #373d3f",
"t1 c #383d3f",
"u1 c #383f40",
"v1 c #464e4f",
"w1 c #9aa1a2",
"x1 c #b0b7b7",
"y1 c #9ea5a5",
"z1 c #495151",
"02 c #383f41",
"12 c #474f50",
"22 c #9fa6a6",
"32 c #b6bcbc",
"42 c #a3a9a9",
"52 c #4a5253",
"62 c #383e40",
"72 c #495152",
"82 c #a4aaaa",
"92 c #a8aeae",
":2 c #4c5354",
";2 c #393f41",
"A2 c #394042",
"B2 c #4a5254",
"C2 c #a9afaf",
"D2 c #c2c7c7",
"E2 c #adb3b3",
"F2 c #4c5556",
"G2 c #394041",
"H2 c #3a4142",
"I2 c #4c5355",
"J2 c #aeb3b4",
"K2 c #c7cccc",
"L2 c #b2b7b7",
"M2 c #4d5658",
"N2 c #3a4042",
"O2 c #4d5657",
"P2 c #b3b8b8",
"Q2 c #cdd1d1",
"R2 c #b7bcbc",
"S2 c #3a4143",
"T2 c #3b4143",
"U2 c #4e5758",
"V2 c #b8bcbc",
"W2 c #d3d7d7",
"X2 c #bbc0c0",
"Y2 c #3b4243",
"Z2 c #3b4344",
"a2 c #4f5859",
"b2 c #bcc1c1",
"c2 c #d9dcdc",
"d2 c #b4b9b9",
"e2 c #3b4244",
"f2 c #3c4344",
"g2 c #3c4445",
"h2 c #505a5b",
"i2 c #b5baba",
"j2 c #60696a",
"k2 c #3c4446",
"l2 c #3c4345",
"m2 c #3d4446",
"n2 c #3d4547",
"o2 c #3d4546",
"p2 c #3e4547",
"q2 c #3e4647",
"r2 c #414a4c",
"s2 c #3e4648",
"t2 c #3f4849",
"u2 c #424a4c",
"v2 c #485353",
"w2 c #495454",
"x2 c #4a5555",
"y2 c #4c5758",
"z2 c #4c5959",
"03 c #3f4748",
"13 c #41494b",
"23 c #424c4d",
"33 c #454e4f",
"43 c #465151",
"53 c #475252",
"63 c #4a5657",
"73 c #3f4749",
"83 c #404849",
"93 c #40484a",
":3 c #444d4e",
";3 c #454e50",
"A3 c #455051",
"B3 c #4d5a5a",
"C3 c #4e5a5b",
"D3 c #4f5b5c",
"E3 c #4f5657",
"F3 c #40494a",
"G3 c #41494a",
"H3 c #414a4b",
"I3 c #424b4c",
"J3 c #424b4d",
"K3 c #434c4d",
"L3 c #434c4e",
"M3 c #434d4e",
"N3 c #444d4f",
"O3 c #444e4f",
"P3 c #454f50",
"Q3 c #465051",
"R3 c #465152",
"S3 c #475152",
"T3 c #475253",
"U3 c #485253",
"V3 c #485354",
"W3 c #495455",
"X3 c #495555",
"Y3 c #4a5556",
"Z3 c #4a5656",
"a3 c #4b5657",
"b3 c #4b5757",
"c3 c #4b5758",
"d3 c #4c5858",
"e3 c #4c5859",
"f3 c #4d5959",
"g3 c #4d595a",
"h3 c #4e5a5a",
"i3 c #4e5b5b",
"j3 c #4f5c5c",
"k3 c #505d5d",
"l3 c #5e6a6a",
"m3 c #737a7a",
"n3 c #7a7f81",
"o3 c #7a8081",
"p3 c #7a8181",
"q3 c #7a8182",
"r3 c #7b8182",
"s3 c #7b8183",
"t3 c #7c8283",
"u3 c #7c8383",
"v3 c #7c8384",
"w3 c #7d8485",
"x3 c #7d8586",
"y3 c #7e8586",
"z3 c #7e8686",
"04 c #7f8686",
"14 c #7f8687",
"24 c #7f8787",
"34 c #7f8788",
"44 c #7f8888",
"54 c #818889",
"64 c #818989",
"74 c #81898a",
"84 c #818a8a",
"94 c #828a8a",
":4 c #828b8b",
";4 c #838b8b",
"A4 c #838c8c",
"B4 c #838d8d",
"C4 c #848d8d",
"D4 c #848d8e",
"E4 c #808888",
"                                                                                                ",
"                                                                                                ",
"                                                                                                ",
"                                                                                                ",
"        E4D4C4B4B4A4A4;4:4948484746454E4E44434241404z3y3x3w3w3v3v3u3u3t3s3r3q3p3o3o3n3m3        ",
"        l3k3j3j3i3i3h3g3f3e3d3c3b3a3Z3Y3X3W3V3V3U3T3S3R3Q3Q3P3P3O3N3M3L3K3J3I3H3H3G3F3E3        ",
"        k3j3D3i3C3B3g3f3e3d3c3b3a3Y3Y3W3W3V3V3U3T3S3R3Q3A3P3;3O3:3M3K3K3I3I3H3H3F3938373        ",
"        j3D3i3C3B3g3f3e3d3c3a363Y3Y3W3W3V3V3T353S343Q3P3P333O3:3M3K323I3I3H313F393837303        ",
"        D3i3C3B3g3z2d3y2b3a3Z3Y3x2W3w2V3v2T3S3S3Q3Q3P3P3O3O3:3M3K3J3I3u2H313F393t27303s2        ",
"        i3h3B3f3e3d3y2b3a3Z3Y3X3W3w2V3U3T3S3R3Q3Q3P3P3O3O3:3L3K3J3I3r2H313F393t27303q2p2        ",
"        h3g3f3e3d3c3b3a3Z3Y3X3W3V3V3U3T3S3R3Q3Q3P3P3O3N3M3L3K3J3I3H3H3G3F383t203s2q2p2o2        ",
"        g3f3e3d3c3b3a3Y3Y3W3W3V3V3U3T3S3R3Q3A3P3;3O3:3M3K3K3I3I3H3H3F393837303s2q2n2o2m2        ",
"        f3e3d3c3a363Y3Y3W3W3V3V3T353S343Q3P3P333O3:3M3K323I3I3H313F393837303s2q2n2o2m2l2        ",
"        d3y2b3a3Z3Y3x2W3w2V3v2T3S3S3Q3Q3P3P3O3O3:3M3K3J3I3u2H313F393t27303s2q2n2m2k2l2l2        ",
"        y2b3a3Z3Y3X3W3w2V3U3T3S3R3Q3Q3j2i2h2O3:3L3K3J3I3r2H313F393t27303q2p2o2m2g2l2f2e2        ",
"        b3a3Z3Y3X3W3V3V3U3T3S3R3Q3Q3P3d2c2b2a2L3K3J3I3H3H3G3F3837303s2q2p2o2m2g2l2Z2e2Y2        ",
"        a3Y3Y3W3W3V3V3U3T3S3R3Q3A3P3;3h2X2W2V2U2I3I3H3H3F393837303s2q2n2o2m2g2l2e2e2T2S2        ",
"        Y3Y3W3w2V3V3T353S343Q3P3P333O3:3a2R2Q2P2O2H313F393837303s2q2n2o2m2l2l2e2e2S2S2N2        ",
"        x2W3w2V3v2T3S3S3Q3Q3P3P3O3O3:3M3K3M2L2K2J2I2F393t27303s2q2n2m2k2l2l2e2Y2S2H2N2G2        ",
"        W3w2V3U3T3S3R3Q3Q3P3P3O3O3:3L3K3J3I3F2E2D2C2B2t27303q2p2o2m2g2l2f2e2Y2S2H2A2;2;2        ",
"        V3V3U3T3S3R3Q3Q3P3P3O3N3M3L3K3J3I3H3H3:292b28272s2q2p2o2m2g2l2Z2e2Y2S2N2A2;2;262        ",
"        V3U3T3S3R3Q3A3P3;3O3:3M3K3K3I3I3H3H3F3935242322212n2o2m2g2l2e2e2T2S2N2A2;2026262        ",
"        T353S343Q3P3P333O3:3M3K323I3I3H313F3938373z1y1x1w1v1m2l2l2e2e2S2S2N2A2;2u162t1s1        ",
"        S3S3Q3Q3P3P3O3O3:3M3K3J3I3u2H313F393t27303s212r1q1p1o1l2e2Y2S2H2N2G2;26262s1s1n1        ",
"        R3Q3Q3P3P3O3O3:3L3K3J3I3r2H313F393t27303q2p2v1m1l1k1j1T2Y2S2H2A2;2;26262s1s1n1i1        ",
"        Q3Q3P3P3O3N3M3L3K3J3I3H3H3G3F3837303s2q2p2v1h1g1f1;2e1d1N2N2A2;2;26262s1s1i1i1c1        ",
"        A3P3;3O3:3M3K3K3I3I3H3H3F393837303s2q2n2v1p1b1a1Z1e1Y1X1W1V1;2026262s1s1i1U1c1T1        ",
"        P333O3:3M3K323I3I3H313F393837303s2q2n2v1S1R1Q1Z1e1P1O1P1N1M1L162t1s1n1i1c1K1J1J1        ",
"        O3O3:3M3K3J3I3u2H313F393t27303s2q2n2I1H1G1F1;2M1P1O1P1E1D1C1B1i1s1n1i1c1K1J1J1A1        ",
"        O3:3L3K3J3I3r2H313F393t273s2q2p2o2I1;1:191;281O1O1N1D171C16151P1c1i1c1K1J141A131        ",
"        M3L3K3J3I3H3H3G3F3837303s2q2p2o2211101z0;281O1P1N1D171C16151E151y0c1T1J141A1x0e1        ",
"        K3K3I3I3H3H3F393837303s2q2n2o221w0v0u0;2M1O1P1N1D1t0C1C1s0r0q0C15171J141A1e1e1p0        ",
"        23I3I3H313F393837303s2q2n2o2m2z0o0n0;2O1O161E1D1C1C151s051q051q051D1C1A1e1e1P171        ",
"        I3u2H313F393t27303s2q2n2m2k2l2m0l0;2O1k061E1D1j0C151j051q051q051D1s0i0D1Y1P171D1        ",
"        r2H313F393t273s2q2p2o2m2g2l2f2e2H2y0k0E1C171j0C151j051q051q051C1s0j0C171P171C1j0        ",
"        H3G3F3837303s2q2p2o2m2g2l2Z2e2Y2S202N1D171j0C151j051q051h0s0j0j0g0C171P171C1j0f0        ",
"        F393837303s2q2n2o2m2g2l2e2e2T2S2N2A2t1t0j0r0e0d0e0h0s0h0s0j0j0e0C1D1P1D1j0s0h0c0        ",
"        93837303s2q2n2o2m2l2l2e2e2S2S2N2A2;2u1b0C1e0h0e0c0e0h0s0s0j0e0C1C171D1j0s0h0c0a0        ",
"        t27303s2q2n2m2k2l2l2e2Y2S2H2N2G2;26262s1i1j0e0c0e0h0s0s0j0e0j0C171D1j0s0h0c0Z0Y0        ",
"        73s2q2p2o2m2g2l2f2e2Y2S2H2A2;2;26262s1s1n1c1j0e0h0h0s0j0e0j0C171C1j0s0h0a0Z0Y0Y0        ",
"        s2q2p2o2m2g2l2Z2e2Y2S2N2A2;2;26262s1s1i1i1c141g0h0s0X0e0j0C171C1j0f0c0a0W0Y0V0U0        ",
"        q2n2o2m2g2l2e2e2T2S2N2A2;2026262s1T0i1U1c1J1J1x051e0e0s0C1D1j0s0h0c0a0W0Y0V0U0S0        ",
"        V1o2m2l2l2e2e2S2S2N2A2;2u162t1s1n1i1c1K1J1J1A1A1P1e0e0j0D1j0s0h0c0a0W0Y0V0U0R0Q0        ",
"        P0O0N0N0M0L0L0K0J0I0H0G0G0F0F0E0D0C0B0A0A0;0:09090807060707070504030302020101000        ",
"                                                                                                ",
"                                                                                                ",
"                                                                                                ",
"                                                                                                "};
