/* XPM */
static char *image[] = {
"32 32 150 2",
"   c None",
"00 c #2aac00",
"10 c #2aad00",
"20 c #8a8a8a",
"30 c #d4d4d4",
"40 c #929292",
"50 c #b7b7b7",
"60 c #29ad00",
"70 c #a8a8a8",
"80 c #a3a3a3",
"90 c #b6b6b6",
":0 c #27ad00",
";0 c #040404",
"A0 c #a0a0a0",
"B0 c #27af00",
"C0 c #999999",
"D0 c #979797",
"E0 c #cacaca",
"F0 c #84cb70",
"G0 c #989898",
"H0 c #bababa",
"I0 c #888888",
"J0 c #d1d1d1",
"K0 c #060606",
"L0 c #585858",
"M0 c #363636",
"N0 c #777777",
"O0 c #666666",
"P0 c #d9d9d9",
"Q0 c #484848",
"R0 c #959595",
"S0 c #737373",
"T0 c #c0c0c0",
"U0 c #adadad",
"V0 c #b4b4b4",
"W0 c #707070",
"X0 c #111111",
"Y0 c #717171",
"Z0 c #0b0b0b",
"a0 c #bbbbbb",
"b0 c #d8d8d8",
"c0 c #646464",
"d0 c #afafaf",
"e0 c #212121",
"f0 c #333333",
"g0 c #181818",
"h0 c #bcbcbc",
"i0 c #d3d3d3",
"j0 c #7e7e7e",
"k0 c #8f8f8f",
"l0 c #2f2f2f",
"m0 c #cfcfcf",
"n0 c #383838",
"o0 c #5a5a5a",
"p0 c #fdfdfd",
"q0 c #292929",
"r0 c #c4c4c4",
"s0 c #c3c3c3",
"t0 c #b0b0b0",
"u0 c #5e5e5e",
"v0 c #cccccc",
"w0 c #2c2c2c",
"x0 c #676767",
"y0 c #f4f4f4",
"z0 c #1d1d1d",
"01 c #9a9a9a",
"11 c #787878",
"21 c #1b1b1b",
"31 c #c1c1c1",
"41 c #b5b5b5",
"51 c #7cc463",
"61 c #86a07e",
"71 c #090909",
"81 c #818181",
"91 c #ededed",
":1 c #171717",
";1 c #7cd472",
"A1 c #24b814",
"B1 c #e1e1e1",
"C1 c #808080",
"D1 c #131313",
"E1 c #ababab",
"F1 c #d2d2d2",
"G1 c #bdbdbd",
"H1 c #cbcbcb",
"I1 c #7d7d7d",
"J1 c #141414",
"K1 c #242424",
"L1 c #e3e3e3",
"M1 c #dedede",
"N1 c #0a0a0a",
"O1 c #8e8e8e",
"P1 c #0c0c0c",
"Q1 c #c7c7c7",
"R1 c #dfdfdf",
"S1 c #3a3a3a",
"T1 c #677964",
"U1 c #020202",
"V1 c #969696",
"W1 c #e7e7e7",
"X1 c #0e0e0e",
"Y1 c #9d9d9d",
"Z1 c #010101",
"a1 c #a9a9a9",
"b1 c #e5e5e5",
"c1 c #070707",
"d1 c #cecece",
"e1 c #dddddd",
"f1 c #e4e4e4",
"g1 c #e0e0e0",
"h1 c #f3f3f3",
"i1 c #aeaeae",
"j1 c #323232",
"k1 c #e8e8e8",
"l1 c #dcdcdc",
"m1 c #e6e6e6",
"n1 c #c9c9c9",
"o1 c #030303",
"p1 c #f9f9f9",
"q1 c #ffffff",
"r1 c #c5c5c5",
"s1 c #000000",
"t1 c #1f1f1f",
"u1 c #bfbfbf",
"v1 c #050505",
"w1 c #22b100",
"x1 c #21b300",
"y1 c #1fb300",
"z1 c #1fb400",
"02 c #1eb500",
"12 c #1db500",
"22 c #1bb500",
"32 c #1bb700",
"42 c #1ab700",
"52 c #19b800",
"62 c #19b900",
"72 c #17b900",
"82 c #16bb00",
"92 c #15bb00",
":2 c #13bc00",
";2 c #12bd00",
"A2 c #11bd00",
"B2 c #0fbf00",
"C2 c #0ec000",
"D2 c #0dc100",
"E2 c #0bc100",
"F2 c #0ac300",
"G2 c #09c300",
"H2 c #07c400",
"I2 c #07c500",
"I2H2G2F2E2E2D2D2C2B2B2A2;2;2:2:2928272726252423222120202z1y1x1w1",
"H2                  A2                                          ",
"G2    v1u1t1s1      ;2          r1                              ",
"F2    s1q1p1o1s1    ;2      n1m1l1k1                            ",
"E2    j1i1q1h1o1    :2  g1f1          e1d1                      ",
"E2      c1b1q1a1Z1  :2  Y1              e1m1                    ",
"D2          X1W1V1U1T1v1s1s1S1r1              R1Q1              ",
"D2          s1P1q1O1s1s1s1s1s1N1                M1L1            ",
"C2        Q1K1s1J1W1I1U1s1s1                        H1R1G1      ",
"B2      F1E1s1s1s1D1q1C1s1                              R1B1    ",
"B2A2A1;1s1s1s1s1s1s1:1918171                                6151",
"A2  4131s1s1s1s1s1s1s121q111                              B1Y1E1",
";2  01s1s1s1s1s1s1s1s1s1z0y0x0X1                        w0s1v0  ",
";2  X1s1s1s1s1s1s1s1s1s1s1t1q1u0                      t0s1s1s0  ",
":2r0s1s1s1s1s1s1s1s1s1s1s1s1q0p0o0n0q1R1            D1s1s1s1n1  ",
":2m0s1s1s1s1s1s1s1s1s1s1s1s1s1l0q1q1q1q1k0        j0s1s1s1s131  ",
"92i0s1s1s1s1s1s1s1s1s1s1    s1j1q1q1q1q1q1k1Y1B1v1s1s1s1s1s1h0  ",
"82v0s1s1s1s1s1s1s1s1s1      s1q1q1q1q1q1q1q1g0f0s1s1s1s1s1s131  ",
"72  s1s1s1s1s1s1s1s1e0d0    s1c0q1q1q1q1q1q1q1b0s1s1s1s1s1s1a0  ",
"72  Z0s1s1s1s1s1s1s1s1g0      s1Y0q1q1q1q1q1q1q1X0s1s1s1s1s1    ",
"62  F1z0s1s1s1s1s1s1s1s1N1W0    s1W0q1q1q1q1q1q1q1H1s1s1s1V0    ",
"52  U0T0s1s1s1s1s1s1s1s1s1v1      s1q1q1q1q1q1q1q1q1P1s1S0T0    ",
"42      R0s1s1s1s1s1s1s1s1s1Z1Q0P0O0Z1N0q1q1q1q1q1q1q1V0M0      ",
"32      H1a1s1s1s1s1s1s1s1s1s1s1L0K0s1s1q1q1q1q1q1q1q1q171X1    ",
"22          J0V1s1s1s1s1s1s1s1s1s1s1s1s1Z1I0q1q1q1q1q1q1q1H1    ",
"12            H0G0X0s1s1s1s1s1s1s1s1s1s1s1s1q1q1q1q1q1q1q1q1s1  ",
"02                  F0E0t0D0s1s1s1s1U1Y1n1T0U1C0q1q1q1q1q1q1s1  ",
"02                  B0  A0r1v1s1s1s1t0s0      ;0q1q1q1q1q1q1s1  ",
"z1                  :0      9090s180            ;070q1q1q1R1s1  ",
"y1                  60        5040T0              o130q120Z0    ",
"x1                  10                                          ",
"w1                  00                                          "};
