/* XPM */
static char *image[] = {
"32 32 213 2",
"   c None",
"00 c #212225",
"10 c #202224",
"20 c #202225",
"30 c #202325",
"40 c #212425",
"50 c #222426",
"60 c #222627",
"70 c #222527",
"80 c #242729",
"90 c #252829",
":0 c #25292a",
";0 c #25292b",
"A0 c #26292b",
"B0 c #262a2c",
"C0 c #272b2c",
"D0 c #272c2d",
"E0 c #282c2e",
"F0 c #282d2e",
"G0 c #292e2e",
"H0 c #292e2f",
"I0 c #292e30",
"J0 c #2a2f30",
"K0 c #2a3030",
"L0 c #2d3233",
"M0 c #292c2f",
"N0 c #2f3335",
"O0 c #2e3134",
"P0 c #313437",
"Q0 c #303536",
"R0 c #343a3c",
"S0 c #2f3235",
"T0 c #2f3336",
"U0 c #303436",
"V0 c #303537",
"W0 c #303336",
"X0 c #303437",
"Y0 c #303638",
"Z0 c #313637",
"a0 c #313537",
"b0 c #3a4041",
"c0 c #323638",
"d0 c #323639",
"e0 c #323738",
"f0 c #393f40",
"g0 c #666e6f",
"h0 c #34383b",
"i0 c #303637",
"j0 c #303538",
"k0 c #394041",
"l0 c #767e7f",
"m0 c #7c8585",
"n0 c #33383a",
"o0 c #34393c",
"p0 c #313738",
"q0 c #313538",
"r0 c #323739",
"s0 c #31373a",
"t0 c #778080",
"u0 c #7d8686",
"v0 c #454c4e",
"w0 c #34393b",
"x0 c #353a3d",
"y0 c #333739",
"z0 c #313638",
"01 c #313639",
"11 c #32383a",
"21 c #788181",
"31 c #7e8787",
"41 c #353a3c",
"51 c #363b3d",
"61 c #373d3e",
"71 c #32373a",
"81 c #313739",
"91 c #7a8283",
":1 c #353b3d",
";1 c #363b3e",
"A1 c #383f40",
"B1 c #33383b",
"C1 c #323839",
"D1 c #3a3f41",
"E1 c #7b8484",
"F1 c #464e4f",
"G1 c #363c3e",
"H1 c #373c3e",
"I1 c #383f41",
"J1 c #7c8686",
"K1 c #464e50",
"L1 c #373d3f",
"M1 c #454d4e",
"N1 c #858b8c",
"O1 c #868e8e",
"P1 c #484f50",
"Q1 c #383d3f",
"R1 c #3a4142",
"S1 c #3b4143",
"T1 c #474e50",
"U1 c #8a9292",
"V1 c #8d9595",
"W1 c #495253",
"X1 c #383e40",
"Y1 c #394042",
"Z1 c #495152",
"a1 c #919898",
"b1 c #949a9a",
"c1 c #4c5455",
"d1 c #393f41",
"e1 c #3b4243",
"f1 c #4b5454",
"g1 c #969d9f",
"h1 c #999fa0",
"i1 c #4e5657",
"j1 c #3a4042",
"k1 c #3b4344",
"l1 c #4d5557",
"m1 c #9da3a3",
"n1 c #9fa6a6",
"o1 c #50595a",
"p1 c #3a4143",
"q1 c #3c4344",
"r1 c #4f5859",
"s1 c #a3a9a9",
"t1 c #a5acac",
"u1 c #535a5c",
"v1 c #3b4244",
"w1 c #515a5b",
"x1 c #939999",
"y1 c #545d5e",
"z1 c #3c4345",
"02 c #3c4445",
"12 c #3e4547",
"22 c #3d4446",
"32 c #3d4546",
"42 c #4c5758",
"52 c #3d4547",
"62 c #3e4648",
"72 c #404849",
"82 c #414a4c",
"92 c #444d4f",
":2 c #495454",
";2 c #4b5757",
"A2 c #3e4647",
"B2 c #3f4749",
"C2 c #40494a",
"D2 c #434d4e",
"E2 c #454e4f",
"F2 c #465152",
"G2 c #475252",
"H2 c #495555",
"I2 c #4c5959",
"J2 c #4e5a5a",
"K2 c #3f4748",
"L2 c #3f4849",
"M2 c #41494a",
"N2 c #424b4d",
"O2 c #434c4d",
"P2 c #485253",
"Q2 c #4a5555",
"R2 c #4c5858",
"S2 c #4d595a",
"T2 c #4d5657",
"U2 c #40484a",
"V2 c #41494b",
"W2 c #414a4b",
"X2 c #424b4c",
"Y2 c #424c4d",
"Z2 c #434c4e",
"a2 c #444d4e",
"b2 c #444e4f",
"c2 c #454f50",
"d2 c #465051",
"e2 c #475152",
"f2 c #475253",
"g2 c #485353",
"h2 c #485354",
"i2 c #495455",
"j2 c #4a5556",
"k2 c #4a5656",
"l2 c #4b5657",
"m2 c #4b5758",
"n2 c #4c5859",
"o2 c #4d5959",
"p2 c #4d5a5a",
"q2 c #4e5a5b",
"r2 c #4e5b5b",
"s2 c #4f5c5c",
"t2 c #5d6969",
"u2 c #73797a",
"v2 c #7a7f81",
"w2 c #7a8081",
"x2 c #7a8181",
"y2 c #7b8182",
"z2 c #7b8283",
"03 c #7c8283",
"13 c #7c8383",
"23 c #7c8384",
"33 c #7d8485",
"43 c #7e8586",
"53 c #7e8686",
"63 c #7f8687",
"73 c #7f8787",
"83 c #7f8788",
"93 c #808888",
":3 c #818989",
";3 c #81898a",
"A3 c #818a8a",
"B3 c #828a8a",
"C3 c #828b8b",
"D3 c #838c8c",
"E3 c #838c8d",
"F3 c #838d8d",
"G3 c #848d8d",
"H3 c #7f8888",
"                                                                ",
"                                                                ",
"    H3G3F3E3D3C3B3A3;3:3939383736353433333231303z2y2x2w2v2u2    ",
"    t2s2r2q2p2o2n2m2l2k2j2i2h2g2f2e2d2c2c2b2a2Z2Y2X2W2V2U2T2    ",
"    s2r2q2S2o2R2m2l2k2Q2i2h2P2f2e2d2c2c2b2a2O2N2X2W2M2U2L2K2    ",
"    r2J2S2I2R2m2l2j2H2i2h2P2G2F2d2c2E2b2D2O2N2X2W2C2U2B2K2A2    ",
"    J2S2n2R2;2l2j2i2:2h2f2e2F2d2c2b292D2O2X282W2C272B262A252    ",
"    o2n242;2k2j2i2:2h2f2e2d2d2c2b2a2D2O2X2W2V2C272B262A23222    ",
"    n2m2l2k2j2i2h2g2f2e2d2c2c2b2a2Z2Y2X2W2V2U2L2K262123202z1    ",
"    m2l2k2Q2i2h2P2f2e2d2y1x1w1a2O2N2X2W2M2U2L2K262122202z1v1    ",
"    l2j2H2i2h2P2G2F2d2c2u1t1s1r1N2X2W2C2U2B2K2A2522202q1v1p1    ",
"    j2i2:2h2f2e2F2d2c2b292o1n1m1l1W2C272B262A25222z1k1v1p1j1    ",
"    i2:2h2f2e2d2d2c2b2a2D2O2i1h1g1f172B262A23222z1v1e1p1j1d1    ",
"    h2g2f2e2d2c2c2b2a2Z2Y2X2W2c1b1a1Z162123202z1v1e1p1Y1d1X1    ",
"    P2f2e2d2c2c2b2a2O2N2X2W2M2U2W1V1U1T12202z1v1S1R1Y1d1X1Q1    ",
"    G2F2d2c2E2b2D2O2N2X2W2C2U2B2K2P1O1N1M1q1v1p1j1Y1d1X1L1L1    ",
"    F2d2c2b292D2O2X282W2C272B262A2K1C3J1e1p1p1j1d1I1X1L1H1G1    ",
"    d2c2b2a2D2O2X2W2V2C272B262A2F1B3E1D1C1B1d1d1A1X1L1H1;1:1    ",
"    c2b2a2Z2Y2X2W2V2U2L2K26212F19391D1C1C1817161X1L1G151:141    ",
"    b2a2O2N2X2W2M2U2L2K26212M13121D111C18101z0y0G1G151x041w0    ",
"    D2O2N2X2W2C2U2B2K2A252v0u0t0D1s0r08101z0q0p0r04141o0w0n0    ",
"    O2X282W2C272B262A252v0m0l0k0s0r0z001z0j0z0z0i0r0o0h0n0r0    ",
"    X2W2V2C272B262A23222v0g0f071e0p0z0z0j0z0q0i0z0q0d0n0r0c0    ",
"    W2V2U2L2K262123202z1v1b0B1p0p0j0z0j0i0a0i0z0q0Z0d0r0c0q0    ",
"    M2U2L2K262122202z1v1S1R1I1r0Y0a0Y0Z0a0X0z0z0a0d0d0z0a0X0    ",
"    U2B2K2A2522202q1v1p1j1Y1d1L1z0Y0Z0a0X0j0Y0a0c0d0z0a0X0W0    ",
"    B262A25222z1k1v1p1j1d1I1X1L1G1p0V0X0V0q0a0a0d0q0a0U0T0S0    ",
"    62A23222z1v1e1p1j1d1A1X1L1H1;1R0q0Q0q0V0a0c0q0P0U0T0S0O0    ",
"    k03202z1v1e1p1Y1d1X1X1L1G151:141n0a0X0a0c0q0X0U0N0S0O0M0    ",
"    L0K0J0I0H0G0F0E0D0C0C0B0A0;0:090808070607070504030201000    ",
"                                                                ",
"                                                                "};
