/* XPM */
static char *image[] = {
"32 32 77 2",
"   c None",
"00 c #aeaeae",
"10 c #acacac",
"20 c #ababab",
"30 c #a9a9a9",
"40 c #a7a7a7",
"50 c #a6a6a6",
"60 c #a3a3a3",
"70 c #a2a2a2",
"80 c #a0a0a0",
"90 c #9f9f9f",
":0 c #9e9e9e",
";0 c #9c9c9c",
"A0 c #9b9b9b",
"B0 c #999999",
"C0 c #a5a5a5",
"D0 c #959595",
"E0 c #e0e0e0",
"F0 c #afafaf",
"G0 c #e1e1e1",
"H0 c #b0b0b0",
"I0 c #e3e3e3",
"J0 c #b6b6b6",
"K0 c #b1b1b1",
"L0 c #e4e4e4",
"M0 c #b8b8b8",
"N0 c #e5e5e5",
"O0 c #bbbbbb",
"P0 c #e6e6e6",
"Q0 c #bdbdbd",
"R0 c #b2b2b2",
"S0 c #bfbfbf",
"T0 c #c1c1c1",
"U0 c #e8e8e8",
"V0 c #c3c3c3",
"W0 c #c5c5c5",
"X0 c #c7c7c7",
"Y0 c #f7f7f7",
"Z0 c #c9c9c9",
"a0 c #cbcbcb",
"b0 c #cdcdcd",
"c0 c #cfcfcf",
"d0 c #eeeeef",
"e0 c #b3b3b4",
"f0 c #b9b9ba",
"g0 c #efefef",
"h0 c #d1d1d1",
"i0 c #e8e8e9",
"j0 c #f1f1f1",
"k0 c #d3d3d3",
"l0 c #eaeaea",
"m0 c #ececec",
"n0 c #ededed",
"o0 c #eeeeee",
"p0 c #f0f0f0",
"q0 c #f2f2f2",
"r0 c #d5d5d5",
"s0 c #f3f3f3",
"t0 c #d7d7d7",
"u0 c #b4b4b4",
"v0 c #fbfbfb",
"w0 c #f5f5f5",
"x0 c #bcbcbc",
"y0 c #f4f4f4",
"z0 c #fefefe",
"01 c #d9d9d9",
"11 c #fcfcfc",
"21 c #f8f8f8",
"31 c #f9f9f9",
"41 c #dbdbdb",
"51 c #b3b3b3",
"61 c #fafafa",
"71 c #c6c6c6",
"81 c #fdfdfd",
"91 c #f6f6f6",
":1 c #ffffff",
";1 c #dddddd",
"                                                                ",
"                                                                ",
"          ;1;1;1;1;1;1;1;1;1;1;1;1;1;1;1;1;1;1;1;1;1;1          ",
"          ;1:1:191:1:1:1:1:1:1:1:1:1:1:181818181818171          ",
"          ;1:1:191:1:1:1:1:1:1:1:1:1:1:161818181818151          ",
"          41:1:191:1:1:1:1:1:1:1:1:1:1:131211181818151          ",
"          01z0z0y0z0x0x0x0x0x0z0x0x0x0x02191w0v08181u0          ",
"          t0z0z0s0818181818181818181818191w0y0s06181u0          ",
"          r0z0z0q081x0x0x0x0x0x0x081x0x0p0o0n0m0l0y0u0          ",
"          k08181j0111111111111111111111191i0i0i0i0i0u0          ",
"          h01111g0v0x0x0x0x0x0x0x0x0v0x0x0f0e0e0d0d051          ",
"          c01111g0v0v0v0v0v0v0v0v0v0v0v0v0v031w0w0w051          ",
"          b01111o061x0x0x0x0x0x061x0x0x0x0x0x0x0616151          ",
"          a01111n06161616161616161616161616161616161u0          ",
"          Z0v0v0m031x0x0x0x0Y0x0x0x0x031313131313131u0          ",
"          X0v0v0l0212121212121212121212121212121212151          ",
"          W0v0v0l0212121212121212121212121212121212151          ",
"          V06161U0Y0Y0Y0Y0Y0Y0Y0Y0Y0Y0Y0Y0Y0Y0Y0Y0Y051          ",
"          T03131U091x0x0x0x0x0x0x0x0x0x091x0x0x0919151          ",
"          S03131U09191919191919191919191919191919191R0          ",
"          Q03131P0w0x0x0x0x0s0x0x0x0x0x0x0x0x0w0w0w0R0          ",
"          O02121N0y0y0y0y0y0y0y0y0y0y0y0y0y0y0y0y0y0R0          ",
"          M02121L0y0x0x0x0x0x0x0x0y0y0y0y0y0y0y0y0y0K0          ",
"          J0Y0Y0I0s0s0s0s0s0s0s0s0s0s0s0s0s0s0s0s0s0H0          ",
"          u0Y0Y0G0q0q0q0q0q0q0q0q0q0q0q0q0q0q0q0q0q0H0          ",
"          R0Y0Y0G0q0q0q0q0q0q0q0q0q0q0q0q0q0q0q0q0q0F0          ",
"          K0Y0Y0G0q0q0q0q0q0q0q0q0q0q0q0q0q0q0q0q0q0H0          ",
"          K0Y0Y0E0q0q0q0q0q0q0q0q0q0q0q0q0q0q0q0q0q0K0          ",
"          K0D0D0D0D0D0D0D0D0D0D0D0D0D0D0D0D0D0D0D0D0K0          ",
"          K0C0B0A0;0:090807060C0504030201000F0H0K0K0K0          ",
"                                                                ",
"                                                                "};
