/* XPM */
static char *image[] = {
"32 32 155 2",
"   c None",
"00 c #9a9996",
"10 c #a1a09d",
"20 c #b8b7b4",
"30 c #a3a2a2",
"40 c #bebdba",
"50 c #bfbebb",
"60 c #c2c1be",
"70 c #c9c8c6",
"80 c #78767c",
"90 c #bab8b8",
":0 c #c7c6c5",
";0 c #89878c",
"A0 c #9e9c9f",
"B0 c #605e66",
"C0 c #58555e",
"D0 c #353240",
"E0 c #46434e",
"F0 c #9d9b9e",
"G0 c #8d8b90",
"H0 c #908956",
"I0 c #7c7553",
"J0 c #494546",
"K0 c #262133",
"L0 c #242032",
"M0 c #a5a4a6",
"N0 c #3e3b49",
"O0 c #5a5349",
"P0 c #bdb45c",
"Q0 c #f9ee67",
"R0 c #f7ec67",
"S0 c #5a534a",
"T0 c #2c2738",
"U0 c #3e3a48",
"V0 c #a4a2a5",
"W0 c #59575f",
"X0 c #2b2537",
"Y0 c #7b734f",
"Z0 c #f8eb60",
"a0 c #f6e960",
"b0 c #2b2637",
"c0 c #272233",
"d0 c #929195",
"e0 c #dbdad7",
"f0 c #3d3a47",
"g0 c #494446",
"h0 c #eddf5b",
"i0 c #f6e75b",
"j0 c #f8e95c",
"k0 c #4a4445",
"l0 c #66646c",
"m0 c #9c9b9d",
"n0 c #514e58",
"o0 c #e4d352",
"p0 c #e9d84f",
"q0 c #201b2a",
"r0 c #201c2a",
"s0 c #1b190e",
"t0 c #f8e554",
"u0 c #e4d253",
"v0 c #363140",
"w0 c #504d58",
"x0 c #8f8e92",
"y0 c #484551",
"z0 c #786e27",
"01 c #3a3544",
"11 c #35303f",
"21 c #1e1a26",
"31 c #f8e451",
"41 c #524b45",
"51 c #494550",
"61 c #88878b",
"71 c #45424e",
"81 c #59511a",
"91 c #47434f",
":1 c #302c38",
";1 c #f7e049",
"A1 c #5e5445",
"B1 c #45414e",
"C1 c #959397",
"D1 c #4c4854",
"E1 c #bca934",
"F1 c #44404d",
"G1 c #514e59",
"H1 c #46414e",
"I1 c #151317",
"J1 c #f7de45",
"K1 c #f4dc45",
"L1 c #433c42",
"M1 c #4b4853",
"N1 c #312d3c",
"O1 c #766944",
"P1 c #d5bd35",
"Q1 c #908024",
"R1 c #d4bc35",
"S1 c #f7db3e",
"T1 c #786b43",
"U1 c #282335",
"V1 c #4c4954",
"W1 c #332e3d",
"X1 c #c0a93e",
"Y1 c #f7d93a",
"Z1 c #342e3e",
"a1 c #77747b",
"b1 c #7b7a7f",
"c1 c #2a2536",
"d1 c #262233",
"e1 c #b19c3a",
"f1 c #f5d533",
"g1 c #f6d633",
"h1 c #b39d3a",
"i1 c #413b41",
"j1 c #2a2637",
"k1 c #585660",
"l1 c #7a787d",
"m1 c #dddcd9",
"n1 c #cccbc9",
"o1 c #67666c",
"p1 c #55525c",
"q1 c #2c2737",
"r1 c #312b3b",
"s1 c #605540",
"t1 c #d7ba33",
"u1 c #eecd30",
"v1 c #d8bb32",
"w1 c #a89239",
"x1 c #312c3c",
"y1 c #252031",
"z1 c #54515b",
"02 c #cdcccb",
"12 c #68666e",
"22 c #514f59",
"32 c #3b3745",
"42 c #241f31",
"52 c #292435",
"62 c #525059",
"72 c #6a6870",
"82 c #c1c1bf",
"92 c #d0cfcd",
":2 c #89888c",
";2 c #52505a",
"A2 c #58565f",
"B2 c #5d5b64",
"C2 c #5e5c64",
"D2 c #5f5d65",
"E2 c #d0cecc",
"F2 c #bbbaba",
"G2 c #dcdbd8",
"H2 c #a6a4a5",
"I2 c #b1afb0",
"J2 c #c1bfbf",
"K2 c #d5d5d1",
"L2 c #ddddd9",
"M2 c #deddda",
"N2 c #dfddd9",
"                                                                ",
"                                                                ",
"            N2M2M2M2M2M2M2M2M2M2M2M2M2M2M2M2M2M2M2M2            ",
"            M2M2M2M2M2M2M2M2M2M2M2M2M2M2M2M2M2M2M2M2M2          ",
"          L2M2M2M2M2M2M2M2M2M2M2M2M2M2M2M2M2M2M2M2M2M2L2        ",
"          K2M2M2M2M2M2M2M2M2J2I2H2I2G2M2M2M2M2M2M2M2M2K2        ",
"          F2M2M2M2M2M2E2D2C2B2A2;2A2C2C2:292M2M2M2M2M2F2        ",
"          F2M2M2M2M28272C262524242423222C212M2M2M2M2M2F2        ",
"          F2M2M2M202C2z1y1x1w1v1u1t1s1r1q1p1o1n1M2M2M2F2        ",
"          F2M2M2m1l1k1j1i1h1g1g1g1g1f1e1d1c1C2b1M2M2M2F2        ",
"          F2M2M2a1C242Z1Y1Y1Y1Y1Y1Y1Y1Y1X1W1V1C2M2M2M2F2        ",
"          F2M2M2C2C2U1T1S1S1S1R1Q1P1S1S1S1O1N1C202M2M2F2        ",
"          F2M2M2C2M1L1K1J1J1I1H1G1F1E1J1J1K142D1C1M2M2F2        ",
"          F2M2M2C2B1A1;1;1;1:191p19181;1;1;1427161M2M2F2        ",
"          F2M2M2C2514131313121110111z031313142y0x0M2M2F2        ",
"          F2M2M2C2w0v0u0t0t0s0r0q1q0p0t0t0o042n0m0M2M2F2        ",
"          F2M2M2l0C242k0j0j0j0j0i0j0j0j0h0g0f0C2e0M2M2F2        ",
"          F2M2M2d0C2c0b0a0Z0Z0Z0Z0Z0Z0Z0Y0X0W0C2M2M2M2F2        ",
"          F2M2M2M2V0C2U0T0S0R0Q0Q0Q0P0O042N0C2M0M2M2M2F2        ",
"          F2M2M2M2m1C2C2L0K0J0I0H0I0x1K071C2G0M2M2M2M2F2        ",
"          F2M2M2M2M2m1F0C2C2E032D032C0C2B0A0M2M2M2M2M2F2        ",
"          F2M2M2M2M2M2M2;0C2C2C2C2C2C2C2:0M2M2M2M2M2M2F2        ",
"          F2M2M2M2M2M2M2M2M2M2M2M2M2M2M2M2M2M2M2M2M2M2F2        ",
"          90M2M2M2M2M2M2M2M2M2M2M2M2M2M2M2M2M2M2M2M2M290        ",
"          80M2M2M2M2M2M2M2M2M2M2M2M2M2M2M2M2M2M2M2M27080        ",
"          8060504040404040404040404040404040404040503080        ",
"          8020100000000000000000000000000000000000103080        ",
"          8020100000000000000000000000000000000000103080        ",
"            201000000000000000000000000000000000001030          ",
"            201000000000000000000000000000000000001030          ",
"                                                                ",
"                                                                "};
