/* XPM */
static char *image[] = {
"48 48 286 2",
"   c None",
"00 c #b7b7b4",
"10 c #9a9996",
"20 c #a1a09d",
"30 c #b8b7b4",
"40 c #bebdba",
"50 c #bfbebb",
"60 c #c2c1be",
"70 c #a3a2a2",
"80 c #c9c8c6",
"90 c #78767c",
":0 c #a4a2a4",
";0 c #bab8b8",
"A0 c #a5a3a6",
"B0 c #727176",
"C0 c #818085",
"D0 c #cdccca",
"E0 c #c7c6c5",
"F0 c #807e83",
"G0 c #89878c",
"H0 c #cac8c8",
"I0 c #9e9c9f",
"J0 c #46434f",
"K0 c #353240",
"L0 c #46434e",
"M0 c #605e66",
"N0 c #9d9b9e",
"O0 c #dad9d6",
"P0 c #87868a",
"Q0 c #363241",
"R0 c #353140",
"S0 c #878589",
"T0 c #d9d8d6",
"U0 c #8d8b90",
"V0 c #908956",
"W0 c #7c7553",
"X0 c #494546",
"Y0 c #242032",
"Z0 c #a5a4a6",
"a0 c #3e3b49",
"b0 c #5a5349",
"c0 c #bdb45c",
"d0 c #f9ee67",
"e0 c #f7ec67",
"f0 c #beb55d",
"g0 c #5a534a",
"h0 c #2c2738",
"i0 c #3e3a48",
"j0 c #a4a2a5",
"k0 c #d2d1cf",
"l0 c #646269",
"m0 c #7f7750",
"n0 c #f2e662",
"o0 c #f9ec63",
"p0 c #f3e762",
"q0 c #807850",
"r0 c #2e2a3a",
"s0 c #47444f",
"t0 c #64626a",
"u0 c #d3d2d0",
"v0 c #949396",
"w0 c #262234",
"x0 c #2b2537",
"y0 c #7b734f",
"z0 c #f7ea60",
"01 c #f8eb60",
"11 c #f6e960",
"21 c #78714e",
"31 c #2b2637",
"41 c #272233",
"51 c #59575f",
"61 c #929195",
"71 c #dbdad7",
"81 c #65646b",
"91 c #3d3a47",
":1 c #241f32",
";1 c #494446",
"A1 c #eddf5b",
"B1 c #f6e75b",
"C1 c #f8e95c",
"D1 c #eee05b",
"E1 c #4a4445",
"F1 c #3d3946",
"G1 c #2d2838",
"H1 c #a49850",
"I1 c #decf4f",
"J1 c #504a1c",
"K1 c #0b0a0b",
"L1 c #0b0a0c",
"M1 c #4f491c",
"N1 c #ddce4e",
"O1 c #f8e758",
"P1 c #a59a50",
"Q1 c #2d2939",
"R1 c #282435",
"S1 c #bab9b8",
"T1 c #9c9b9d",
"U1 c #514e58",
"V1 c #36313f",
"W1 c #e4d352",
"X1 c #e9d84f",
"Y1 c #1c1b0e",
"Z1 c #201b2a",
"a1 c #201c2a",
"b1 c #1b190e",
"c1 c #e7d64e",
"d1 c #f8e554",
"e1 c #e4d253",
"f1 c #363140",
"g1 c #504d58",
"h1 c #9b9a9c",
"i1 c #8f8e92",
"j1 c #484551",
"k1 c #504a46",
"l1 c #786e27",
"m1 c #1d1a25",
"n1 c #3a3544",
"o1 c #35303f",
"p1 c #1e1a26",
"q1 c #746a26",
"r1 c #f8e451",
"s1 c #524b45",
"t1 c #494550",
"u1 c #8e8c90",
"v1 c #433f4c",
"w1 c #464016",
"x1 c #312c3a",
"y1 c #494551",
"z1 c #403b49",
"02 c #312c3b",
"12 c #433d15",
"22 c #f8e24d",
"32 c #655d48",
"42 c #43404c",
"52 c #828086",
"62 c #45424e",
"72 c #5c5446",
"82 c #59511a",
"92 c #2f2b37",
":2 c #47434f",
";2 c #302c38",
"A2 c #554d19",
"B2 c #f7e049",
"C2 c #5e5445",
"D2 c #45414e",
"E2 c #87858a",
"F2 c #959397",
"G2 c #4c4854",
"H2 c #423b43",
"I2 c #bca934",
"J2 c #141217",
"K2 c #44404d",
"L2 c #514e59",
"M2 c #524e59",
"N2 c #46414e",
"O2 c #151317",
"P2 c #b9a634",
"Q2 c #f7de45",
"R2 c #f4dc45",
"S2 c #433c42",
"T2 c #949295",
"U2 c #a8a6a8",
"V2 c #59565f",
"W2 c #c7b243",
"X2 c #8c7e26",
"Y2 c #151213",
"Z2 c #2a282f",
"a2 c #2b2830",
"b2 c #141213",
"c2 c #8b7c25",
"d2 c #f7dd42",
"e2 c #c8b443",
"f2 c #322c3c",
"g2 c #a7a6a7",
"h2 c #312d3c",
"i2 c #282334",
"j2 c #766944",
"k2 c #d5bd35",
"l2 c #908024",
"m2 c #d4bc35",
"n2 c #f7db3e",
"o2 c #786b43",
"p2 c #282335",
"q2 c #302c3c",
"r2 c #cecdcc",
"s2 c #77767c",
"t2 c #4c4954",
"u2 c #332e3d",
"v2 c #c0a93e",
"w2 c #f7d93a",
"x2 c #c2ac3e",
"y2 c #342e3e",
"z2 c #4b4853",
"03 c #77747b",
"13 c #b5b4b5",
"23 c #252032",
"33 c #443e41",
"43 c #d3b939",
"53 c #f6d736",
"63 c #d3ba39",
"73 c #433e41",
"83 c #252132",
"93 c #312e3d",
":3 c #b3b2b2",
";3 c #7b7a7f",
"A3 c #58555e",
"B3 c #2a2536",
"C3 c #403940",
"D3 c #b19c3a",
"E3 c #f6d633",
"F3 c #f5d533",
"G3 c #b39d3a",
"H3 c #413b41",
"I3 c #262233",
"J3 c #2a2637",
"K3 c #585660",
"L3 c #7a787d",
"M3 c #dddcd9",
"N3 c #cccbc9",
"O3 c #67666c",
"P3 c #55525c",
"Q3 c #2c2737",
"R3 c #312b3b",
"S3 c #605540",
"T3 c #d7ba33",
"U3 c #eecd30",
"V3 c #d8bb32",
"W3 c #a89239",
"X3 c #615640",
"Y3 c #312c3c",
"Z3 c #252031",
"a3 c #2b2738",
"b3 c #54515b",
"c3 c #68666d",
"d3 c #cdcccb",
"e3 c #bdbcbb",
"f3 c #626068",
"g3 c #5a5761",
"h3 c #383442",
"i3 c #262132",
"j3 c #363040",
"k3 c #332e3e",
"l3 c #2d2839",
"m3 c #262133",
"n3 c #373442",
"o3 c #5a5760",
"p3 c #615f67",
"q3 c #bdbcbc",
"r3 c #bfbdbd",
"s3 c #68666e",
"t3 c #514f59",
"u3 c #3b3745",
"v3 c #292436",
"w3 c #241f31",
"x3 c #292435",
"y3 c #3a3745",
"z3 c #525059",
"04 c #6a6870",
"14 c #c1c1bf",
"24 c #d0cfcd",
"34 c #89888c",
"44 c #5d5b63",
"54 c #52505a",
"64 c #58565f",
"74 c #5d5b64",
"84 c #5f5d65",
"94 c #88878b",
":4 c #d0cecc",
";4 c #bbbaba",
"A4 c #c0bfbd",
"B4 c #c3c1c1",
"C4 c #67656c",
"D4 c #5e5c64",
"E4 c #66646c",
"F4 c #8b8a8e",
"G4 c #c2c1c1",
"H4 c #c0c0bf",
"I4 c #c1c0bf",
"J4 c #a6a4a5",
"K4 c #b1afb0",
"L4 c #c1bfbf",
"M4 c #dcdbd8",
"N4 c #d5d5d1",
"O4 c #ddddd9",
"P4 c #deddda",
"Q4 c #dfddd9",
"                                                                                                ",
"                                                                                                ",
"                                                                                                ",
"                  Q4P4P4P4P4P4P4P4P4P4P4P4P4P4P4P4P4P4P4P4P4P4P4P4P4P4P4P4P4Q4                  ",
"                P4P4P4P4P4P4P4P4P4P4P4P4P4P4P4P4P4P4P4P4P4P4P4P4P4P4P4P4P4P4P4P4                ",
"                P4P4P4P4P4P4P4P4P4P4P4P4P4P4P4P4P4P4P4P4P4P4P4P4P4P4P4P4P4P4P4P4                ",
"              O4P4P4P4P4P4P4P4P4P4P4P4P4P4P4P4P4P4P4P4P4P4P4P4P4P4P4P4P4P4P4P4P4O4              ",
"              N4P4P4P4P4P4P4P4P4P4P4P4P4M4L4K4J4J4K4I4M4P4P4P4P4P4P4P4P4P4P4P4P4N4              ",
"              H4P4P4P4P4P4P4P4P4P4P4G4F4E4D4D4D4D4D4D4C4F4B4P4P4P4P4P4P4P4P4P4P4A4              ",
"              ;4P4P4P4P4P4P4P4P4:49484D4D4746454546444D4D4843424P4P4P4P4P4P4P4P4;4              ",
"              ;4P4P4P4P4P4P4P41404D4D4z3y3x3w3w3w3w3v3u3t3D4D4s3r3P4P4P4P4P4P4P4;4              ",
"              ;4P4P4P4P4P4P4q3p3D4o3n3w3m3l3k3j3j3k3l3i3w3h3g3D4f3e3P4P4P4P4P4P4;4              ",
"              ;4P4P4P4P4P4d3c3D4b3a3Z3Y3X3W3V3U3U3T3W3S3R3Z3Q3P3D4O3N3P4P4P4P4P4;4              ",
"              ;4P4P4P4P4M3L3D4K3J3I3H3G3F3E3E3E3E3E3E3F3D3C3I3B3A3D4;3P4P4P4P4P4;4              ",
"              ;4P4P4P4P4:3D4D49383736353535353535353535353433323k3D4D413P4P4P4P4;4              ",
"              ;4P4P4P4P403D4z2w3y2x2w2w2w2w2w2w2w2w2w2w2w2w2v2u2w3t2D4s2P4P4P4P4;4              ",
"              ;4P4P4P4r2D4D4q2p2o2n2n2n2n2n2m2l2l2k2n2n2n2n2n2j2i2h2D4D4d3P4P4P4;4              ",
"              ;4P4P4P4g2D464w3f2e2d2d2d2d2c2b2a2Z2Y2X2d2d2d2d2W2Y323V2D4U2P4P4P4;4              ",
"              ;4P4P4P4T2D4z2w3S2R2Q2Q2Q2P2O2N2M2L2K2J2I2Q2Q2Q2R2H2w3G2D4F2P4P4P4;4              ",
"              ;4P4P4P4E2D4D2w3C2B2B2B2B2A2;2:2P3P3:29282B2B2B2B272w362D494P4P4P4;4              ",
"              ;4P4P4P452D442w332222222221202z1y1y1z1x1w12222222232w3v1D452P4P4P4;4              ",
"              ;4P4P4P4u1D4t1w3s1r1r1r1r1q1p1o1n1n1o1m1l1r1r1r1r1k1w3j1D4i1P4P4P4;4              ",
"              ;4P4P4P4h1D4g1w3f1e1d1d1d1c1b1a1Q3Q3Z1Y1X1d1d1d1W1V1w3U1D4T1P4P4P4;4              ",
"              ;4P4P4P4S1D474R1Q1P1O1O1O1O1N1M1L1K1J1I1O1O1O1O1H1G1R174D4;4P4P4P4;4              ",
"              ;4P4P4P4M4E4D4F1w3E1D1C1C1C1C1C1B1B1C1C1C1C1C1A1;1:191D48171P4P4P4;4              ",
"              ;4P4P4P4P461D4514131211101010101010101010101z0y0x0w051D4v0P4P4P4P4;4              ",
"              ;4P4P4P4P4u0t0D4s0w3r0q0p0o0o0o0o0o0o0o0o0n0m0r0w3j1D4l0k0P4P4P4P4;4              ",
"              ;4P4P4P4P4P4j0D4D4i0w3h0g0f0e0d0d0d0d0e0c0b0h0w3a0D4D4Z0P4P4P4P4P4;4              ",
"              ;4P4P4P4P4P4M3F4D4D462Y0m3Y3X0W0V0V0W0;1Y3m3Y062D4D4U0P4P4P4P4P4P4;4              ",
"              ;4P4P4P4P4P4P4T0S0D4D4b3R0w3w3m3x3x3m3w3w3Q0P3D4D4P0O0P4P4P4P4P4P4;4              ",
"              ;4P4P4P4P4P4P4P4M3N0M0D4D4A3L0u3K0K0u3J0A3D4D4M0I0M3P4P4P4P4P4P4P4;4              ",
"              ;4P4P4P4P4P4P4P4P4P4H0G0D4D4D4D4D4D4D4D4D4D4F0E0P4P4P4P4P4P4P4P4P4;4              ",
"              ;4P4P4P4P4P4P4P4P4P4P4P4D0j0C0B0l0l0B0C0A0D0P4P4P4P4P4P4P4P4P4P4P4;4              ",
"              ;4P4P4P4P4P4P4P4P4P4P4P4P4P4P4P4P4P4P4P4P4P4P4P4P4P4P4P4P4P4P4P4P4;4              ",
"              ;0P4P4P4P4P4P4P4P4P4P4P4P4P4P4P4P4P4P4P4P4P4P4P4P4P4P4P4P4P4P4P4P4;0              ",
"              :0P4P4P4P4P4P4P4P4P4P4P4P4P4P4P4P4P4P4P4P4P4P4P4P4P4P4P4P4P4P4P4P4:0              ",
"              9080P4P4P4P4P4P4P4P4P4P4P4P4P4P4P4P4P4P4P4P4P4P4P4P4P4P4P4P4P4P48090              ",
"              90706050404040404040404040404040404040404040404040404040404050607090              ",
"              90703020101010101010101010101010101010101010101010101010101020307090              ",
"              90703020101010101010101010101010101010101010101010101010101020307090              ",
"              90703020101010101010101010101010101010101010101010101010101020307090              ",
"              90703020101010101010101010101010101010101010101010101010101020307090              ",
"                7030201010101010101010101010101010101010101010101010101010203070                ",
"                7030201010101010101010101010101010101010101010101010101010203070                ",
"                  002010101010101010101010101010101010101010101010101010102000                  ",
"                                                                                                ",
"                                                                                                ",
"                                                                                                "};
