/* XPM */
static char *image[] = {
"32 32 171 2",
"   c None",
"00 c #212225",
"10 c #1e2022",
"20 c #1d2022",
"30 c #1d1f21",
"40 c #1d1e20",
"50 c #1c1e20",
"60 c #1c1d20",
"70 c #1b1d1f",
"80 c #1f2123",
"90 c #202224",
":0 c #202225",
";0 c #242527",
"A0 c #26292c",
"B0 c #2c2f32",
"C0 c #2b2d30",
"D0 c #313436",
"E0 c #2a2c2f",
"F0 c #292c2f",
"G0 c #636566",
"H0 c #37393c",
"I0 c #292b2e",
"J0 c #484a4c",
"K0 c #515455",
"L0 c #357cbd",
"M0 c #282b2e",
"N0 c #474a4b",
"O0 c #515355",
"P0 c #505354",
"Q0 c #505254",
"R0 c #505154",
"S0 c #505153",
"T0 c #4f5053",
"U0 c #4f5052",
"V0 c #4d5051",
"W0 c #4e5051",
"X0 c #377fbf",
"Y0 c #282b2d",
"Z0 c #e6e7e7",
"a0 c #282a2d",
"b0 c #272a2c",
"c0 c #2b2e31",
"d0 c #27292c",
"e0 c #26292b",
"f0 c #222527",
"g0 c #2b2d2f",
"h0 c #3b3d40",
"i0 c #2b2e30",
"j0 c #26282b",
"k0 c #25272a",
"l0 c #2c2e30",
"m0 c #25282a",
"n0 c #242629",
"o0 c #232527",
"p0 c #232528",
"q0 c #232628",
"r0 c #2d2e30",
"s0 c #2a2d30",
"t0 c #242729",
"u0 c #242628",
"v0 c #646567",
"w0 c #e6e6e7",
"x0 c #646667",
"y0 c #252729",
"z0 c #262729",
"01 c #26282a",
"11 c #27292b",
"21 c #28292b",
"31 c #282a2c",
"41 c #292a2c",
"51 c #292b2d",
"61 c #2a2c2d",
"71 c #2a2b2d",
"81 c #2a2c2e",
"91 c #2e3031",
":1 c #434548",
";1 c #545658",
"A1 c #4e5052",
"B1 c #377ebf",
"C1 c #56585b",
"D1 c #545558",
"E1 c #eaeaeb",
"F1 c #fafafa",
"G1 c #e8f0f8",
"H1 c #3593e6",
"I1 c #3a82c2",
"J1 c #6b6d6f",
"K1 c #e7e8e8",
"L1 c #e8e8e8",
"M1 c #707274",
"N1 c #3d4043",
"O1 c #2d3033",
"P1 c #36393c",
"Q1 c #3f4245",
"R1 c #47494c",
"S1 c #505255",
"T1 c #2e3134",
"U1 c #383b3d",
"V1 c #414346",
"W1 c #484b4d",
"X1 c #4a4c4f",
"Y1 c #515456",
"Z1 c #2f3235",
"a1 c #303336",
"b1 c #323538",
"c1 c #393c3f",
"d1 c #3b3e41",
"e1 c #424548",
"f1 c #4b4e51",
"g1 c #535558",
"h1 c #313437",
"i1 c #333639",
"j1 c #343639",
"k1 c #444749",
"l1 c #4d5052",
"m1 c #555759",
"n1 c #56595b",
"o1 c #34373a",
"p1 c #35383b",
"q1 c #373a3d",
"r1 c #393b3e",
"s1 c #3a3d40",
"t1 c #3c3f41",
"u1 c #3d3f42",
"v1 c #3e4144",
"w1 c #404345",
"x1 c #424447",
"y1 c #434649",
"z1 c #45484a",
"02 c #46484b",
"12 c #474a4d",
"22 c #494c4e",
"32 c #4b4d50",
"42 c #4c4f51",
"52 c #4e5053",
"62 c #4f5154",
"72 c #505355",
"82 c #525557",
"92 c #545659",
":2 c #55585a",
";2 c #57595c",
"A2 c #585a5d",
"B2 c #595c5e",
"C2 c #66686b",
"D2 c #6b6c6e",
"E2 c #727476",
"F2 c #737577",
"G2 c #747578",
"H2 c #757779",
"I2 c #76787a",
"J2 c #77797b",
"K2 c #787a7c",
"L2 c #797b7c",
"M2 c #7a7c7e",
"N2 c #7b7d7f",
"O2 c #7c7f80",
"P2 c #7e7f81",
"Q2 c #7f8182",
"R2 c #7f8183",
"S2 c #818284",
"T2 c #818385",
"U2 c #838486",
"V2 c #848688",
"W2 c #868889",
"X2 c #87888a",
"Y2 c #888a8b",
"Z2 c #898a8d",
"a2 c #8a8c8d",
"b2 c #8a8d8e",
"c2 c #8c8d8f",
"d2 c #88898b",
"                                                                ",
"                                                                ",
"    d2c2b2a2Z2Y2X2W2V2V2U2T2S2R2Q2P2O2N2M2L2K2J2I2H2G2F2E2D2    ",
"    C2B2A2;2:292827262524232221202z1y1x1w1v1u1t1s1r1q1p1o1y1    ",
"    B2A2n1m192827262l14232221202k1y1x1w1v1u1t1s1r1q1p1j1i1h1    ",
"    A2n1m1g1827262l1f132221202k1e1x1w1v1u1d1c1r1q1p1j1b1a1Z1    ",
"    n1m1g1Y17262l1f1X1W11202k1e1V1w1v1u1d1c1U1q1p1j1b1a1Z1T1    ",
"    m1g1Y1S162l1f1X1W1R102k1e1V1Q1v1u1d1c1U1P1p1j1b1a1Z1O1O1    ",
"    g1Y1S152l1f1X1W1R1z1k1e1V1Q1N1t1d1c1U1P1o1i1b1a1Z1O1O1O1    ",
"    Y1S1524232X1W1R1z1y1e1V1Q1N1t1s1c1U1P1o1i1h1a1Z1O1O1O1O1    ",
"    S152423222W1R1z1y1x1V1Q1N1t1s1r1U1P1M1L1K1J1Z1O1O1O1O1O1    ",
"    524232I1H1H1H1H1H1H1H1H1H1H1H1H1H1H1G1F1F1E1D1C142O1O1O1    ",
"    423222B1H1H1H1H1H1H1H1H1H1H1H1H1H1H1G1F1F1E1A1;142O1O1O1    ",
"    322212:19181716151413131211101z0y0y0x0w0w0v0u0t0s0O1O1O1    ",
"    221202k1Q1r06151413111111101z0y0u0q0p0o0p0u0n0y0m0s0O1O1    ",
"    1202k1e1V1N1l0413111110101z0y0u0q0p0o0p0u0n0y0k0m0j0i0O1    ",
"    02k1e1V1Q1N1h0g0111101y0z0y0u0q0f0o0p0u0n0y0k0m0j0e0d0c0    ",
"    y1e1V1Q1N1t1s1q16101y0y0y0u0q0f0o0p0u0n0y0k0m0j0e0d0b0a0    ",
"    x1V1Q1N1t1s1r1U1M1Z0Z0x0u0q0f0o0p0u0n0y0k0m0j0e0d0b0a0Y0    ",
"    w1Q1N1X0H1H1H1H1G1F1F1E1W0V0W0A1U0T0S0R0Q0Q0P0O0N0a0Y0M0    ",
"    v1u1t1L0H1H1H1H1G1F1F1E1V0W0A1U0T0S0R0Q0Q0P0O0K0J0Y0M0I0    ",
"    u1t1s1H051m0y0y0x0w0w0G0o0p0u0n0y0k0m0j0e0d0b0a0Y0M0I0F0    ",
"    d1c1r1q1i111n0p0o0o0f0o0p0u0n0y0k0m0j0e0d0b0a0Y0M0I0F0E0    ",
"    c1U1q1p1j1D0k0o0o0f0o0p0u0n0y0k0m0j0e0d0b0a0Y0M0I0F0E0s0    ",
"    U1P1p1j1b1a1T1q0f0o0p0u0n0y0k0m0j0e0d0b0a0Y0M0I0F0E0s0C0    ",
"    P1o1i1b1a1Z1O1B0t0p0u0n0y0k0m0j0e0d0b0a0Y0M0I0F0E0s0C0c0    ",
"    o1i1h1a1Z1O1O1O1B0m0n0y0k0m0j0e0d0b0a0Y0M0I0F0E0s0C0c0c0    ",
"    i1h1Z1Z1O1O1O1O1O1B0j0k0m0j0e0d0b0a0Y0M0I0F0E0s0C0c0c0B0    ",
"    O1Z1T1O1O1O1O1O1O1O1B0A0j0e0d0b0a0Y0M0I0F0E0s0C0c0c0B0F0    ",
"    ;0:09090909090909090908070707060505040303020101010808000    ",
"                                                                ",
"                                                                "};
